<svg id="Capa_1" data-name="Capa 1" xmlns="http://www.w3.org/2000/svg" viewBox="0 0 46.22 46.22"><defs><style>.cls-1{fill:#6f63e9;}</style></defs><path class="cls-1" d="M25.06,49.64A23.11,23.11,0,1,1,48.17,26.53,23.13,23.13,0,0,1,25.06,49.64Zm0-42.36A19.25,19.25,0,1,0,44.31,26.53,19.27,19.27,0,0,0,25.06,7.28Z" transform="translate(-1.95 -3.42)"/><path class="cls-1" d="M25.06,37.57a1.92,1.92,0,0,1-1.93-1.93V17.38a1.93,1.93,0,0,1,3.86,0V35.64A1.93,1.93,0,0,1,25.06,37.57Z" transform="translate(-1.95 -3.42)"/><path class="cls-1" d="M34.19,28.44H15.93a1.93,1.93,0,1,1,0-3.86H34.19a1.93,1.93,0,0,1,0,3.86Z" transform="translate(-1.95 -3.42)"/></svg>